# xmcd CD database file
#
# Track frame offsets:
#	150
#	20142
#	48217
#	68277
#	92825
#	110765
#	130730
#	153500
#	171975
#	192617
#	210075
#	229365
#	250017
#	270917
#	289432
#	307070
#
# Disc length: 4310 seconds
#
# Revision: 0
# Processed by: cddbd v1.5.2PL0 Copyright (c) Steve Scherf et al.
# Submitted via: CDex 1.70beta2
#
DISCID=e410d410
DTITLE=Jennifer Lopez - On the 6th
DYEAR=1999
DGENRE=Salsa
TTITLE0=If you had my love
TTITLE1=Should've never
TTITLE2=Too late
TTITLE3=Feelin' so good
TTITLE4=Let's get loud
TTITLE5=Could this be love
TTITLE6=No me ames (Duet with Marc Anthony)(tropical remix)
TTITLE7=Waiting for tonight
TTITLE8=Open off my love
TTITLE9=Promise me you'll try
TTITLE10=It's not that serious
TTITLE11=Talk about us
TTITLE12=No me ames (Duet with Marc Anthony)(Ballad Version)
TTITLE13=Una noche mas
TTITLE14=Bonus track: Baila
TTITLE15=Bonus track: Theme from mahogany (Do you know where you're going to)
EXTD=YEAR: 1999
EXTT0=
EXTT1=
EXTT2=
EXTT3=
EXTT4=
EXTT5=
EXTT6=
EXTT7=
EXTT8=
EXTT9=
EXTT10=
EXTT11=
EXTT12=
EXTT13=
EXTT14=
EXTT15=
PLAYORDER=
